HIERARCHY
ROOT Hips
{
 OFFSET 0.000000 0.000000 0.000000
 CHANNELS 6 Xposition Yposition Zposition Yrotation Xrotation Zrotation
 JOINT Chest
 {
  OFFSET 0.000000 9.585900 0.002600
  CHANNELS 3 Yrotation Xrotation Zrotation
  JOINT Chest2
  {
   OFFSET 0.000000 9.601200 -0.005300
   CHANNELS 3 Yrotation Xrotation Zrotation
   JOINT Chest3
   {
    OFFSET 0.000000 9.561800 0.000000
    CHANNELS 3 Yrotation Xrotation Zrotation
    JOINT Chest4
    {
     OFFSET 0.000000 9.552100 0.000000
     CHANNELS 3 Yrotation Xrotation Zrotation
     JOINT Neck
     {
      OFFSET 0.000000 14.453000 0.000000
      CHANNELS 3 Yrotation Xrotation Zrotation
      JOINT Head
      {
       OFFSET 0.000000 8.936500 -0.011300
       CHANNELS 3 Yrotation Xrotation Zrotation
       End Site
       {
        OFFSET 0.000000 17.073600 -0.006000
       }
      }
     }
     JOINT RightCollar
     {
      OFFSET -2.921100 9.558500 0.000000
      CHANNELS 3 Yrotation Xrotation Zrotation
      JOINT RightShoulder
      {
       OFFSET -13.519700 0.000000 0.000000
       CHANNELS 3 Yrotation Xrotation Zrotation
       JOINT RightElbow
       {
        OFFSET 0.000000 -29.696600 0.000000
        CHANNELS 3 Yrotation Xrotation Zrotation
        JOINT RightWrist
        {
         OFFSET 0.000000 -24.004700 0.000000
         CHANNELS 3 Yrotation Xrotation Zrotation
         End Site
         {
          OFFSET 0.000000 -17.728500 0.000000
         }
        }
       }
      }
     }
     JOINT LeftCollar
     {
      OFFSET 2.921100 9.558500 0.000000
      CHANNELS 3 Yrotation Xrotation Zrotation
      JOINT LeftShoulder
      {
       OFFSET 13.519700 0.000000 0.000000
       CHANNELS 3 Yrotation Xrotation Zrotation
       JOINT LeftElbow
       {
        OFFSET 0.000000 -29.696600 0.000000
        CHANNELS 3 Yrotation Xrotation Zrotation
        JOINT LeftWrist
        {
         OFFSET 0.000000 -24.004700 0.000000
         CHANNELS 3 Yrotation Xrotation Zrotation
         End Site
         {
          OFFSET 0.000000 -17.728500 0.000000
         }
        }
       }
      }
     }
    }
   }
  }
 }
 JOINT RightHip
 {
  OFFSET -7.771700 -0.012900 -0.001300
  CHANNELS 3 Yrotation Xrotation Zrotation
  JOINT RightKnee
  {
   OFFSET 0.000000 -40.869800 0.001200
   CHANNELS 3 Yrotation Xrotation Zrotation
   JOINT RightAnkle
   {
    OFFSET 0.000000 -39.717900 0.002100
    CHANNELS 3 Yrotation Xrotation Zrotation
    JOINT RightToe
    {
     OFFSET 0.000000 -4.965400 11.033500
     CHANNELS 3 Yrotation Xrotation Zrotation
     End Site
     {
      OFFSET 0.000000 -1.423100 5.872300
     }
    }
   }
  }
 }
 JOINT LeftHip
 {
  OFFSET 7.771700 -0.012900 -0.001300
  CHANNELS 3 Yrotation Xrotation Zrotation
  JOINT LeftKnee
  {
   OFFSET 0.000000 -40.869800 0.001200
   CHANNELS 3 Yrotation Xrotation Zrotation
   JOINT LeftAnkle
   {
    OFFSET 0.000000 -39.717900 0.002100
    CHANNELS 3 Yrotation Xrotation Zrotation
    JOINT LeftToe
    {
     OFFSET 0.000000 -4.965400 11.033500
     CHANNELS 3 Yrotation Xrotation Zrotation
     End Site
     {
      OFFSET 0.000000 -1.423100 5.872300
     }
    }
   }
  }
 }
}
MOTION
Frames: 11
Frame Time: 0.008333
-8.627804 56.172197 36.613503 177.018870 -55.844234 1.929829 0.944246 26.378946 3.244034 0.060335 4.453960 0.404708 0.110848 7.074448 0.646364 0.620920 21.657030 2.098377 0.391415 15.481539 -2.142013 1.511957 -7.002303 -4.138978 10.006132 7.337776 -1.001581 28.977964 -43.618978 -15.580056 170.807666 -52.889267 -150.564766 6.523224 -7.448346 -50.787047 -11.369127 2.954714 -3.967700 -14.233938 -29.966668 5.911262 161.535300 -43.364392 -176.141225 -21.758568 -19.011215 48.895155 16.539740 -21.136036 -0.087637 -12.507379 67.555156 -12.954239 1.206983 23.867920 6.189301 -1.339977 -14.591843 7.772886 -8.843406 -24.052845 -3.257415 29.149303 66.288647 18.277918 -15.908259 33.360680 1.204587 0.780315 -21.682107 -1.673410
-8.642414 56.166506 36.631853 177.020339 -55.915540 1.842452 0.880146 26.459832 3.237014 0.055417 4.487398 0.408516 0.103202 7.124133 0.651975 0.596910 21.718453 2.104444 0.403711 15.410902 -2.036791 1.498930 -7.136334 -3.949230 9.972591 7.081757 -1.178372 28.940165 -43.470380 -15.570734 170.775711 -52.771840 -150.333243 6.599454 -7.768169 -50.793119 -11.180117 2.839296 -4.116284 -13.942586 -29.802714 5.701888 161.658749 -43.159379 -176.465805 -21.811991 -19.249738 48.937135 16.512119 -21.073730 -0.088842 -12.491244 67.506422 -12.804059 1.238570 23.900948 6.105249 -1.322547 -14.586035 7.759778 -8.904678 -24.024487 -3.286895 29.230757 66.288566 18.480520 -16.594657 33.415010 1.054570 0.773904 -21.749448 -1.788699
-8.657276 56.173505 36.641300 176.945145 -56.061918 1.823285 0.841545 26.688093 3.230368 0.049007 4.545444 0.415394 0.093413 7.210245 0.662215 0.566708 21.823802 2.117937 0.417369 15.282911 -1.949931 1.497109 -7.376202 -3.795756 9.938479 6.665180 -1.422214 28.921519 -43.327166 -15.600047 170.732424 -52.656948 -150.067908 6.689168 -8.066698 -50.819362 -10.943881 2.565965 -4.250327 -13.587294 -29.668635 5.443559 161.747574 -42.967732 -176.819230 -21.844202 -19.467363 48.908588 16.512988 -20.929164 -0.066235 -12.482370 67.449560 -12.660189 1.249976 23.952932 6.039628 -1.266761 -14.599354 7.710550 -8.905513 -23.906055 -3.297464 29.221747 66.291908 18.639388 -18.187004 33.460157 0.857614 0.558683 -21.843038 -2.006195
-8.665934 56.177651 36.652520 176.906286 -56.174270 1.743286 0.819009 26.947084 3.265353 0.045706 4.628067 0.424164 0.088687 7.332681 0.675427 0.552392 21.971723 2.136559 0.421794 15.095677 -1.866874 1.481161 -7.726104 -3.647480 9.859004 6.073352 -1.684731 28.942413 -43.180651 -15.675014 170.652403 -52.552833 -149.770560 6.795228 -8.367793 -50.889836 -10.702903 2.131984 -4.334451 -13.234830 -29.574064 5.178208 161.863940 -42.808524 -177.193887 -21.855127 -19.645260 48.822977 16.483061 -20.827039 -0.023804 -12.463695 67.396365 -12.509776 1.310267 23.972168 6.005289 -1.265927 -14.586231 7.651300 -8.927518 -23.814323 -3.282856 29.237273 66.284645 18.820784 -19.596286 33.487376 0.683045 0.371638 -21.925156 -2.201288
-8.672164 56.180191 36.664633 176.863914 -56.261810 1.664314 0.841957 27.225987 3.305010 0.048859 4.728851 0.432732 0.094117 7.481889 0.688322 0.568558 22.149459 2.153899 0.411765 14.860750 -1.771363 1.434593 -8.165382 -3.471421 9.712983 5.338211 -1.910650 29.010306 -43.019782 -15.790678 170.529549 -52.457947 -149.458900 6.927088 -8.686731 -51.013917 -10.492821 1.577713 -4.339189 -12.938396 -29.522566 4.945399 162.042983 -42.699507 -177.573366 -21.841068 -19.767011 48.693520 16.455012 -20.747746 0.013089 -12.431288 67.341594 -12.342797 1.343348 23.998593 5.931065 -1.265065 -14.574370 7.620978 -8.938722 -23.746813 -3.297112 29.313182 66.269869 19.055809 -20.359366 33.506640 0.477959 0.365133 -21.986723 -2.282294
-8.677826 56.184278 36.675484 176.827194 -56.349629 1.595430 0.895453 27.513390 3.322515 0.058420 4.835256 0.439152 0.109600 7.639133 0.697861 0.613416 22.334182 2.163736 0.390566 14.605819 -1.655147 1.359251 -8.642747 -3.252344 9.517132 4.549036 -2.067741 29.121075 -42.844965 -15.937682 170.370388 -52.369359 -149.157404 7.091185 -9.017315 -51.182707 -10.322369 0.982083 -4.264821 -12.723930 -29.509881 4.774268 162.283034 -42.653940 -177.936818 -21.800941 -19.842216 48.531886 16.429368 -20.661084 0.031875 -12.376935 67.286775 -12.148999 1.367750 24.025171 5.852426 -1.246582 -14.565496 7.584882 -8.937773 -23.675839 -3.329538 29.479622 66.247133 19.325372 -20.708924 33.550182 0.420748 0.366954 -22.054536 -2.358665
-8.676181 56.190574 36.684844 176.759566 -56.445594 1.530251 1.006105 27.774198 3.355623 0.072283 4.932090 0.442399 0.131817 7.781926 0.702662 0.676224 22.499813 2.164232 0.363618 14.367846 -1.517825 1.263514 -9.089036 -2.990405 9.300491 3.818714 -2.146774 29.263406 -42.661825 -16.102547 170.184865 -52.297250 -148.885630 7.278684 -9.360862 -51.367381 -10.182300 0.443636 -4.137610 -12.593949 -29.530958 4.673764 162.546206 -42.674655 -178.255959 -21.747661 -19.898398 48.361696 16.414591 -20.569493 0.076957 -12.312977 67.227302 -11.938626 1.371601 24.067401 5.752874 -1.219628 -14.567760 7.559173 -8.936111 -23.581630 -3.302637 29.471380 66.243107 19.463081 -21.065529 33.542785 0.142064 0.573323 -22.079315 -2.360643
-8.665468 56.197542 36.694004 176.722333 -56.542579 1.408548 1.143975 27.934555 3.418671 0.090590 4.995311 0.441812 0.160899 7.875043 0.701952 0.758441 22.606505 2.158791 0.327063 14.206711 -1.355875 1.137147 -9.393076 -2.675880 9.059210 3.311679 -2.119783 29.423440 -42.478915 -16.266794 169.977478 -52.255245 -148.651383 7.454905 -9.710423 -51.536542 -10.086619 0.122295 -3.980839 -12.532972 -29.580019 4.627676 162.794917 -42.746060 -178.516996 -21.696553 -19.942745 48.203729 16.373336 -20.483953 0.153656 -12.246941 67.164460 -11.723670 1.416669 24.094334 5.703064 -1.218990 -14.558494 7.496936 -8.961358 -23.481003 -3.239221 29.463334 66.241540 19.602391 -21.275759 33.537848 -0.071734 0.690094 -22.109366 -2.358594
-8.662796 56.204607 36.703228 176.698666 -56.637056 1.346849 1.175528 27.938588 3.381096 0.099086 5.001461 0.436874 0.174144 7.884090 0.694441 0.794506 22.617417 2.140137 0.317082 14.183252 -1.204546 1.060784 -9.440145 -2.388006 8.922042 3.205110 -2.059996 29.591518 -42.308767 -16.416094 169.742211 -52.243080 -148.449510 7.588468 -10.009250 -51.676278 -9.907018 0.159821 -3.913491 -12.519800 -29.648815 4.614073 163.027591 -42.850455 -178.736112 -21.654828 -19.958046 48.053486 16.348911 -20.379622 0.154851 -12.186065 67.101306 -11.514064 1.442015 24.127019 5.646129 -1.198411 -14.553501 7.432683 -8.927111 -23.414683 -3.357788 29.665928 66.206866 20.006600 -21.219233 33.582202 -0.058507 0.607224 -22.188008 -2.442646
-8.657314 56.212516 36.712797 176.678711 -56.737369 1.288101 1.002733 27.829577 3.291039 0.074978 4.961110 0.428439 0.135580 7.824793 0.680472 0.676395 22.553223 2.092608 0.397044 14.281761 -1.126048 1.178663 -9.257017 -2.269131 9.107943 3.462758 -2.141545 29.766782 -42.158756 -16.546509 169.439432 -52.248429 -148.246248 7.694018 -10.249358 -51.774184 -9.418305 0.469483 -4.082172 -12.537021 -29.726155 4.619524 163.256191 -42.975529 -178.938577 -21.621078 -19.924028 47.883229 16.319361 -20.267773 0.155495 -12.140336 67.035212 -11.318893 1.477291 24.164332 5.547178 -1.202600 -14.550245 7.411831 -8.915984 -23.333468 -3.408914 29.814744 66.188259 20.266336 -21.139939 33.643250 0.011519 0.563933 -22.266091 -2.536922
-8.640744 56.220722 36.723883 176.656455 -56.841780 1.186432 0.753061 27.682946 3.231893 0.034790 4.906118 0.419011 0.071525 7.744034 0.664421 0.480877 22.465003 2.031467 0.520929 14.433029 -1.089154 1.393709 -8.973999 -2.244047 9.469410 3.850966 -2.306170 29.941550 -42.022789 -16.658401 169.006971 -52.239087 -147.994101 7.814997 -10.507198 -51.819111 -8.778298 0.853629 -4.361280 -12.561290 -29.800482 4.635457 163.471348 -43.105485 -179.135913 -21.585734 -19.836621 47.666056 16.268613 -20.163039 0.209242 -12.104420 66.962364 -11.135898 1.529202 24.197510 5.460300 -1.219463 -14.539981 7.380782 -8.946245 -23.239503 -3.389863 29.845971 66.181644 20.450202 -21.158794 33.669719 -0.105537 0.587359 -22.323316 -2.566113
